<?xml version="1.0" encoding="utf-8"?>
<!-- Generator: Adobe Illustrator 16.0.3, SVG Export Plug-In . SVG Version: 6.00 Build 0)  -->
<!DOCTYPE svg PUBLIC "-//W3C//DTD SVG 1.1//EN" "http://www.w3.org/Graphics/SVG/1.1/DTD/svg11.dtd">
<svg version="1.1" id="Layer_1" xmlns="http://www.w3.org/2000/svg" xmlns:xlink="http://www.w3.org/1999/xlink" x="0px" y="0px"
	 width="558.731px" height="246.342px" viewBox="-2.739 0 558.731 246.342" enable-background="new -2.739 0 558.731 246.342"
	 xml:space="preserve">
<g>
	<g>
		<path fill="#FFFFFF" d="M277.563,149.369c-41.18,0-74.684-33.503-74.684-74.682C202.879,33.502,236.383,0,277.563,0
			c41.183,0,74.688,33.502,74.688,74.688C352.251,115.866,318.746,149.369,277.563,149.369z M277.563,14.935
			c-32.946,0-59.749,26.807-59.749,59.754c0,32.943,26.803,59.748,59.749,59.748c32.95,0,59.753-26.805,59.753-59.748
			C337.316,41.741,310.514,14.935,277.563,14.935z"/>
		<polygon fill="#FFFFFF" points="266.909,45.253 303.16,74.689 266.909,104.12 		"/>
	</g>
	<g>
		<g>
			<path fill="#FFFFFF" d="M11.189,189.465c1.449,0,2.298,0.863,2.548,2.588v0.316c0,0.408-0.112,0.961-0.336,1.658
				c1.541,1.055,4.669,2.213,9.385,3.479l12.505,6.164c3.886,2.041,5.828,4.246,5.828,6.617v0.416
				c0,4.557-5.367,8.455-16.101,11.695c-2.595,0.618-4.887,1.146-6.875,1.579l0.079,1.048c0,0.264-0.863,0.651-2.588,1.166
				l-0.73,0.078c-0.435,0-1.179-0.322-2.232-0.968c-0.593-0.158-2.615-0.304-6.065-0.435c-1.133-0.305-1.903-0.765-2.312-1.383
				l-0.237-0.535c0.408-1.5,0.988-2.469,1.739-2.902l0.81-0.573c1.884,0.461,3.069,0.69,3.556,0.69h0.415
				c-0.764-5.82-1.482-10.879-2.154-15.172c-0.263-1.963-0.395-3.933-0.395-5.907c-0.698-0.565-3.221-1.119-7.567-1.659
				c-2.133-0.486-3.201-1.311-3.201-2.471v-0.611c0-0.619,0.823-1.383,2.47-2.292l0.316-0.335c3.964,1.054,6.46,1.58,7.487,1.58
				v-0.158c0-1.936,0.876-3.135,2.627-3.596L11.189,189.465z M13.007,200.351c0,5.071,0.968,11.445,2.904,19.124h0.079
				c4.214-0.697,7.586-1.521,10.115-2.47c4.676-1.83,7.297-3.082,7.863-3.754c0.724-0.776,1.086-1.435,1.086-1.976v-0.336
				c0-1.699-2.819-3.912-8.456-6.639c-5.584-2.699-10.036-4.05-13.355-4.05h-0.237L13.007,200.351L13.007,200.351z"/>
			<path fill="#FFFFFF" d="M58.255,208.629c0.316,1.133,0.474,2.015,0.474,2.646c0,2.635-2.048,4.762-6.144,6.381v0.08
				c1.106,1.83,2.522,2.746,4.248,2.746c2.397,0,4.945-1.91,7.646-5.729c1.673-1.87,2.943-2.806,3.813-2.806h0.158l0.158,0.178
				v0.811l-0.079,0.315c0.026,0.132,0.132,0.225,0.316,0.276c0.355,0,0.586-0.283,0.691-0.85h0.158v0.079
				c0,0.896-0.777,2.37-2.331,4.425c-0.277,0.475-0.468,0.995-0.573,1.561c-0.725,0.172-1.087,0.469-1.087,0.891
				c-1.488,2.438-3.674,4.154-6.559,5.156c-0.948,0.209-1.719,0.314-2.312,0.314h-0.81c-3.885,0-7.705-2.805-11.458-8.416
				l-0.395-6.4v-0.592c0-2.621,0.85-4.254,2.548-4.899c1.831-1.027,3.438-1.541,4.82-1.541
				C54.291,203.255,56.53,205.046,58.255,208.629z M50.432,214.338c0.592,0,1.514-0.469,2.766-1.402
				c0.21-0.658,0.315-1.186,0.315-1.58c0-1.594-0.711-2.699-2.133-3.318l-0.613-0.079c-0.816,0-1.225,0.257-1.225,0.771
				c-0.29,0.526-0.435,1.291-0.435,2.291C49.108,212.586,49.55,213.693,50.432,214.338z"/>
			<path fill="#FFFFFF" d="M78.178,187.727c1.211,0,2.074,0.606,2.588,1.817c-1.054,6.493-1.581,11.616-1.581,15.37v3.397
				l1.086,0.079c2.344,0,4.933-0.361,7.764-1.087l1.343-0.079c1.212,0,1.817,0.58,1.817,1.738c0,1.727-1.159,2.746-3.477,3.062
				c-1.027,0.275-3.682,0.58-7.962,0.908c0,0.105-0.191,0.158-0.573,0.158l0.494,5.215c0,0.725-0.165,1.37-0.494,1.938
				c0.382,0.461,0.573,1.093,0.573,1.896v0.81c0,1.818-0.191,2.793-0.573,2.924l-2.075-0.156c-0.237,0-0.521,0.184-0.85,0.553
				c-1.422-0.619-2.133-2.91-2.133-6.875c0-3.582-0.191-5.374-0.573-5.374c-0.487-0.514-2.173-0.771-5.058-0.771
				c-1.291,0-2.206-0.691-2.746-2.074v-0.236c0.646-1.423,2.114-2.134,4.405-2.134c1.212,0.026,1.818,0.104,1.818,0.235
				c0.408,0,0.705-0.336,0.889-1.006l0.257-0.158h0.691l-0.099-1.067c0-4.583,0.474-10.503,1.422-17.761
				c0.698-0.883,1.601-1.323,2.707-1.323L78.178,187.727L78.178,187.727z"/>
			<path fill="#FFFFFF" d="M99.621,187.727c1.211,0,2.074,0.606,2.588,1.817c-1.054,6.493-1.581,11.616-1.581,15.37v3.397
				l1.087,0.079c2.344,0,4.932-0.361,7.764-1.087l1.344-0.079c1.211,0,1.817,0.58,1.817,1.738c0,1.727-1.159,2.746-3.477,3.062
				c-1.027,0.275-3.681,0.58-7.961,0.908c0,0.105-0.191,0.158-0.573,0.158l0.494,5.215c0,0.725-0.165,1.37-0.494,1.938
				c0.382,0.461,0.573,1.093,0.573,1.896v0.81c0,1.818-0.191,2.793-0.573,2.924l-2.074-0.156c-0.237,0-0.521,0.184-0.85,0.553
				c-1.422-0.619-2.134-2.91-2.134-6.875c0-3.582-0.191-5.374-0.573-5.374c-0.487-0.514-2.173-0.771-5.057-0.771
				c-1.291,0-2.206-0.691-2.746-2.074v-0.236c0.646-1.423,2.113-2.134,4.405-2.134c1.212,0.026,1.817,0.104,1.817,0.235
				c0.408,0,0.705-0.336,0.889-1.006l0.257-0.158h0.691l-0.099-1.067c0-4.583,0.474-10.503,1.422-17.761
				c0.698-0.883,1.601-1.323,2.707-1.323L99.621,187.727L99.621,187.727z"/>
			<path fill="#FFFFFF" d="M126.635,208.629c0.316,1.133,0.474,2.015,0.474,2.646c0,2.635-2.048,4.762-6.144,6.381v0.08
				c1.106,1.83,2.522,2.746,4.248,2.746c2.397,0,4.946-1.91,7.646-5.729c1.672-1.87,2.944-2.806,3.813-2.806h0.158l0.158,0.178
				v0.811l-0.079,0.315c0.026,0.132,0.131,0.225,0.316,0.276c0.355,0,0.585-0.283,0.691-0.85h0.158v0.079
				c0,0.896-0.777,2.37-2.331,4.425c-0.276,0.475-0.468,0.995-0.573,1.561c-0.725,0.172-1.086,0.469-1.086,0.891
				c-1.489,2.438-3.675,4.154-6.559,5.156c-0.948,0.209-1.719,0.314-2.312,0.314h-0.81c-3.885,0-7.705-2.805-11.458-8.416
				l-0.395-6.4v-0.592c0-2.621,0.85-4.254,2.549-4.899c1.83-1.027,3.438-1.541,4.82-1.541
				C122.67,203.255,124.909,205.046,126.635,208.629z M118.812,214.338c0.593,0,1.515-0.469,2.766-1.402
				c0.211-0.658,0.316-1.186,0.316-1.58c0-1.594-0.711-2.699-2.134-3.318l-0.612-0.079c-0.817,0-1.225,0.257-1.225,0.771
				c-0.29,0.526-0.435,1.291-0.435,2.291C117.488,212.586,117.929,213.693,118.812,214.338z"/>
			<path fill="#FFFFFF" d="M159.03,183.835c1.106,0.132,1.66,0.375,1.66,0.729c0.263,1.963,0.395,4.373,0.395,7.23v0.811
				c0,3.78-0.211,7.494-0.632,11.143l9.088-2.924l2.43-0.315c1.238,0,2.173,0.296,2.806,0.89c-0.172,0.565-0.257,1.237-0.257,2.016
				l0.079,0.078c-1.186,1.002-3.168,1.91-5.947,2.727c-2.371,0.541-4.419,1.173-6.144,1.896c-0.54,0.236-1.199,0.651-1.976,1.244
				v0.158c0.447,0.896,1.877,1.731,4.287,2.51c1.778,0.539,3.082,1.205,3.911,1.994h0.652c0.276,0,0.994,0.362,2.153,1.088
				c4.715,2.055,7.264,3.482,7.646,4.287v0.078c-0.171,0-0.31,0.579-0.415,1.738c-0.211,0.461-0.79,0.691-1.738,0.691l-1.087,0.414
				c-5.769-2.674-9.746-4.472-11.933-5.394c-1.304-0.487-2.41-0.823-3.318-1.008c-0.33,0.672-0.494,1.509-0.494,2.51l0.257,5.551
				c0,1.106-0.257,1.87-0.771,2.292c-0.171,0.118-0.31,0.586-0.415,1.402l-1.245,0.514l-0.335,0.079
				c-0.988-0.25-1.62-0.493-1.897-0.729c-0.514-1.055-0.771-2.661-0.771-4.82l0.119-7.369l-0.079-1.977l-2.43-1.659l0.079-1.007
				l-0.316-1.187c0-0.698,1.001-1.68,3.003-2.942c0.342,0,0.579-6.178,0.711-18.531c0.145-2.266,0.31-3.398,0.494-3.398
				c0.777-0.539,1.475-0.81,2.094-0.81H159.03L159.03,183.835z"/>
			<path fill="#FFFFFF" d="M197.108,202.761c1.027,0,1.719,0.869,2.074,2.608c0,0.908,0.553,3.857,1.659,8.851
				c0.777,2.778,1.91,5.123,3.398,7.033c0.882,1.33,1.323,2.356,1.323,3.081v0.494c0,0.619-0.389,0.929-1.166,0.929
				c-0.75,0.487-1.264,0.731-1.541,0.731c-1.462-0.541-2.773-1.707-3.932-3.498c-0.593-1.133-1.667-3.607-3.221-7.429l-0.494-0.612
				c-1.91,2.938-3.569,5.217-4.979,6.836c-1.726,1.806-3.708,2.707-5.947,2.707c-2.133,0-3.523-1.106-4.168-3.318l-0.079-1.324
				c0-2.977,1.929-6.671,5.788-11.083c2.397-1.948,5.163-3.608,8.298-4.979c0.856-0.685,1.719-1.026,2.588-1.026H197.108z
				 M185.748,219.119h0.079c1.265,0,2.542-1.106,3.833-3.319c2.384-2.937,3.576-5.229,3.576-6.875l-0.079-0.079h-0.178
				c-0.935,0.29-2.621,1.691-5.057,4.208c-1.502,1.91-2.252,3.905-2.252,5.985L185.748,219.119z"/>
			<path fill="#FFFFFF" d="M221.949,202.129c0.698,1.619,1.33,3.629,1.896,6.025c1.08,7.389,1.916,12.229,2.509,14.521
				c0.171,0,0.31,0.501,0.415,1.502v0.157c0,0.896-0.58,1.344-1.738,1.344h-0.158c-1.673,0-2.509-0.311-2.509-0.93
				c-0.791-1.619-1.43-3.607-1.917-5.965l-1.739-10.433h-0.078c-1.857,2.267-4.043,6.651-6.559,13.158
				c-1.041,2.12-1.62,3.2-1.739,3.239c0-0.172-0.27-0.283-0.81-0.336h-1.165c-0.487,0-0.731-0.243-0.731-0.73l-0.929-1.658
				c0.725-2.636,1.087-7.259,1.087-13.869c1.106-0.672,1.686-1.08,1.738-1.226c0-0.237,0.112-0.354,0.336-0.354
				c1.936,0.264,2.904,0.545,2.904,0.849l-0.237,0.731l0.079,0.078h0.079c1.054-1,2.015-2.298,2.884-3.892
				c1.396-2.042,2.673-3.062,3.833-3.062C221.1,201.701,221.949,201.984,221.949,202.129z"/>
			<path fill="#FFFFFF" d="M261.378,204.678c0.816,0,1.534,0.553,2.153,1.659c-0.408,1.133-0.626,1.831-0.652,2.094l0.158,0.731
				c-1.106,0.922-2.371,4.397-3.793,10.431c-1.304,4.058-2.911,6.085-4.82,6.085c-1.673,0-3.629-2.186-5.868-6.559
				c-2.832-4.295-4.248-6.955-4.248-7.981v-0.633c0-1.619,1.403-2.431,4.208-2.431l4.248,7.805l0.731,1.008
				c1.594-1.054,2.957-3.846,4.09-8.377c0.882-2.502,1.62-3.754,2.212-3.754l0.849-0.078H261.378z"/>
			<path fill="#FFFFFF" d="M269.861,194.187c1.356,0,2.166,0.337,2.43,1.009l0.237,0.987c0,1.015-1.074,1.712-3.22,2.095h-0.573
				c-1.567-0.105-2.351-0.58-2.351-1.424l-0.079-0.314v-0.436c0.408-1.277,1.435-1.917,3.082-1.917H269.861L269.861,194.187z
				 M271.126,203.058c0.619,3.503,0.928,7.185,0.928,11.043v2.312l-0.158,8.535c-0.435,0.289-1.074,0.521-1.917,0.691l-0.592,0.632
				h-0.079c-0.461,0-0.882-0.349-1.264-1.047c0,0.329-0.053,0.494-0.158,0.494c-0.817-0.712-1.225-2.239-1.225-4.584l0.73-9.7
				c-0.105-1.277-0.158-3.232-0.158-5.867c0-2.213,0.771-3.318,2.312-3.318C270.599,202.246,271.126,202.518,271.126,203.058z"/>
			<path fill="#FFFFFF" d="M303.304,205.605c2.556,0,4.498,0.659,5.828,1.977c0.316,0.104,0.475,0.322,0.475,0.652
				c-0.486,0.328-0.758,0.56-0.811,0.69c0.328,6.954,0.494,12.144,0.494,15.567c0,6.61-0.555,10.793-1.66,12.545
				c-1.567,3.24-3.728,4.859-6.479,4.859c-2.581,0-4.847-1.041-6.796-3.121l-0.158-0.277v-0.334c0-0.777-0.691-2.016-2.074-3.715
				c-0.565-0.976-0.85-1.838-0.85-2.588c0-0.752,0.204-1.291,0.611-1.621h0.337c0.237,0,0.651,0.297,1.245,0.891
				c0.645,0,0.968,0.138,0.968,0.414c0.487,1.527,1.812,3.05,3.971,4.564c0.079,0,0.777,0.473,2.095,1.422
				c1.08-0.276,2.016-1.021,2.806-2.232c0.883-1.778,1.323-4.301,1.323-7.566l-0.236-9.699l0.079-1.58
				c-0.593,0.565-1.806,2.33-3.636,5.293c-1.488,1.779-2.957,2.668-4.405,2.668h-0.573c-0.922,0-1.975-0.605-3.16-1.817
				c-0.883-0.565-1.324-1.251-1.324-2.055c-0.328-0.869-0.494-1.896-0.494-3.082v-0.572c0-4.426,2.267-7.823,6.797-10.194
				c1.699-0.725,3.359-1.086,4.979-1.086h0.649V205.605z M295.855,217.775l0.158,1.659c1.436-0.776,2.681-2.153,3.734-4.129
				c1.133-2.015,2.152-3.7,3.062-5.058c-0.026-0.184-0.134-0.276-0.315-0.276c-1.213,0-2.682,0.705-4.406,2.114
				c-1.488,1.554-2.232,3.267-2.232,5.137V217.775z"/>
			<path fill="#FFFFFF" d="M319.809,203.709c0.619,3.583,0.928,8.271,0.928,14.066l-0.077,2.073l0.178,0.515
				c0,7.822-0.555,12.519-1.66,14.086c-1.567,3.647-3.865,5.473-6.895,5.473h-0.08c-2.66,0-4.979-1.027-6.953-3.082
				c-0.289-0.303-0.436-0.908-0.436-1.816c-1.977-2.621-2.964-4.394-2.964-5.314v-0.633c0-0.514,0.218-0.987,0.651-1.422h0.237
				c0.212,0,0.712,0.31,1.501,0.929l0.316,0.079h0.533c0.315,1.236,1.086,2.455,2.312,3.654c0.909,0.776,2.338,1.771,4.287,2.982
				c1.317-0.461,2.312-1.35,2.983-2.667c0.843-1.923,1.265-4.524,1.265-7.804l-0.257-7.783l0.336-5.137l-0.158-5.334
				c0-2.647,0.764-3.973,2.291-3.973C319.255,202.603,319.809,202.972,319.809,203.709z M318.484,195.886
				c1.159,0,1.943,0.396,2.352,1.187l0.158,0.729c0,1.159-1.133,1.884-3.397,2.174h-0.573c-1.566-0.157-2.352-0.776-2.352-1.856
				c0-1.291,1.055-2.035,3.162-2.232L318.484,195.886L318.484,195.886z"/>
			<path fill="#FFFFFF" d="M326.474,222.951c-0.329-0.605-0.619-1.291-0.869-2.055c-0.275-0.975-0.415-1.93-0.415-2.865v-0.414
				c0-2.463,0.351-4.723,1.047-6.776c0.146-0.197,0.798-0.546,1.956-1.047c0.237-0.171,0.725-0.757,1.462-1.759
				c0.856-0.553,2.345-0.83,4.466-0.83h0.078c1.094,0,2.049,0.271,2.864,0.811c0.226-0.367,0.396-0.686,0.515-0.947
				c0.407-0.565,0.791-0.851,1.146-0.851h0.139c0.289,0,0.56,0.211,0.81,0.633c0,0.856-0.275,1.87-0.83,3.042
				c0.396,0.646,0.731,1.403,1.009,2.271c0.29,0.857,0.435,1.83,0.435,2.925v0.711c0,3.754-1.422,6.776-4.268,9.067
				c-1.555,0.936-2.95,1.402-4.188,1.402h-0.277c-1.316,0-2.456-0.402-3.418-1.205c-0.368,0.619-0.678,1.187-0.928,1.699
				c-0.752,0.461-1.174,0.691-1.266,0.691h-0.079c-0.092-0.053-0.139-0.158-0.139-0.316v-0.1l0.079-0.354l-0.415,0.079
				c-0.157-0.079-0.236-0.211-0.236-0.396l0.039-0.039c-0.092,0-0.158-0.06-0.196-0.178v-0.1
				C325.203,225.316,325.696,224.281,326.474,222.951z M334.791,211.395c-0.264-0.289-0.565-0.572-0.908-0.85
				c-1.186,0-2.271,0.658-3.26,1.976c-0.5,0.515-0.844,0.798-1.026,0.851l0.099,0.75l-0.197,4.248l5.155-6.776
				C334.705,211.527,334.751,211.46,334.791,211.395z M336.115,213.963c-1.08,1.488-3.017,4.076-5.809,7.764
				c0,0.014-0.008,0.02-0.02,0.02c0.303,0.449,0.678,0.673,1.125,0.673c1.516-0.579,2.754-1.606,3.715-3.082
				c0.75-1.265,1.125-2.509,1.125-3.733v-0.336C336.253,214.82,336.207,214.384,336.115,213.963z"/>
			<path fill="#FFFFFF" d="M359.948,203.334c1.646,0,2.47,0.375,2.47,1.126c0.185,0.79,0.467,1.376,0.851,1.758v0.158
				c-4.688,2.37-8.088,6.21-10.194,11.518c-1.001,2.832-1.501,5.132-1.501,6.896c-1.567,0.725-2.614,1.087-3.142,1.087
				c0-0.619-0.665-1.226-1.995-1.817c0-0.896-0.726-4.471-2.174-10.729c-0.329-1.289-0.494-2.613-0.494-3.971v-1.086
				c0.237-0.869,1.034-1.384,2.392-1.541h0.197c1.62,0,2.607,1.133,2.963,3.397l-0.099,1.304c1.225-1.054,2.97-2.877,5.235-5.473
				c1.883-1.751,3.647-2.627,5.295-2.627H359.948z"/>
			<path fill="#FFFFFF" d="M379.277,208.629c0.316,1.133,0.475,2.015,0.475,2.646c0,2.635-2.049,4.762-6.145,6.381v0.08
				c1.105,1.83,2.521,2.746,4.248,2.746c2.396,0,4.945-1.91,7.645-5.729c1.674-1.87,2.944-2.806,3.813-2.806h0.158l0.157,0.178
				v0.811l-0.078,0.315c0.025,0.132,0.131,0.225,0.316,0.276c0.354,0,0.584-0.283,0.69-0.85h0.157v0.079
				c0,0.896-0.776,2.37-2.332,4.425c-0.275,0.475-0.467,0.995-0.571,1.561c-0.726,0.172-1.087,0.469-1.087,0.891
				c-1.489,2.438-3.676,4.154-6.561,5.156c-0.947,0.209-1.719,0.314-2.311,0.314h-0.811c-3.885,0-7.705-2.805-11.459-8.416
				l-0.396-6.4v-0.592c0-2.621,0.851-4.254,2.549-4.899c1.83-1.027,3.438-1.541,4.82-1.541
				C375.312,203.255,377.552,205.046,379.277,208.629z M371.455,214.338c0.592,0,1.514-0.469,2.766-1.402
				c0.211-0.658,0.316-1.186,0.316-1.58c0-1.594-0.713-2.699-2.135-3.318l-0.611-0.079c-0.817,0-1.227,0.257-1.227,0.771
				c-0.289,0.526-0.434,1.291-0.434,2.291C370.13,212.586,370.571,213.693,371.455,214.338z"/>
			<path fill="#FFFFFF" d="M413.867,189.268c4.859,0,8.277,2.674,10.252,8.021c0.475,1.396,0.711,2.391,0.711,2.982
				c-0.367,1.106-1.283,1.66-2.746,1.66h-0.889l-0.77,0.078c-0.541-2.159-1.094-3.732-1.66-4.723
				c-1.396-2.383-2.688-3.574-3.872-3.574h-0.336c-1.501,0-2.392,1.39-2.667,4.168l-0.395,6.361
				c1.697,0.185,5.405,0.389,11.121,0.613c1.646,0.235,2.471,0.446,2.471,0.631c0,0.25,0.158,0.561,0.474,0.93v0.178
				c-0.368,0-0.612,0.296-0.731,0.889c-1.264,0.937-3.22,1.403-5.867,1.403h-4.801c-1.08,0-1.916,0.11-2.509,0.335
				c0.698,9.551,1.409,15.807,2.134,18.77l-0.236,0.158h-0.079c-0.158,0-0.429-0.119-0.81-0.355l-0.613,1.501h-0.396
				c-0.329,0-0.962-0.329-1.896-0.987c-0.633,0-0.948-0.389-0.948-1.166c-0.54-1.594-1.047-6.513-1.521-14.758
				c-0.197-1.712-0.351-2.568-0.455-2.568l-4.819-0.85c-0.646-0.289-1.021-0.525-1.126-0.711v-2.271
				c0-0.158,0.553-0.322,1.658-0.494c1.541-0.697,2.807-1.047,3.793-1.047h0.1v-0.078c0-7.125,1.212-12.02,3.635-14.68
				c0.975-0.275,2.029-0.414,3.162-0.414h0.631V189.268z"/>
			<path fill="#FFFFFF" d="M435.585,207.226c2.699,0,4.57,1.646,5.61,4.938c0.304,0.883,0.454,1.852,0.454,2.904v0.73
				c0,3.754-1.429,6.775-4.287,9.068c-1.566,0.935-2.957,1.401-4.168,1.401h-0.277c-2.805,0-4.793-1.791-5.965-5.374
				c-0.265-0.921-0.396-1.876-0.396-2.863v-0.416c0-2.422,0.35-4.688,1.047-6.795c0.105-0.186,0.758-0.521,1.957-1.009
				c0.289-0.25,0.77-0.843,1.441-1.776c0.869-0.541,2.371-0.812,4.504-0.812h0.08V207.226z M431.773,214.338l-0.119,3.773
				c0.105,2.121,0.579,3.181,1.422,3.181c1.133-0.5,2.035-1.363,2.707-2.589c0.54-1.08,0.811-2.113,0.811-3.102v-0.297
				c0-1.58-0.579-2.896-1.738-3.951c-0.869,0-1.666,0.555-2.391,1.66c-0.33,0.395-0.573,0.619-0.73,0.671L431.773,214.338z"/>
			<path fill="#FFFFFF" d="M461.316,203.334c1.646,0,2.469,0.375,2.469,1.126c0.186,0.79,0.469,1.376,0.85,1.758v0.158
				c-4.688,2.37-8.086,6.21-10.192,11.518c-1.002,2.832-1.502,5.132-1.502,6.896c-1.567,0.725-2.614,1.087-3.142,1.087
				c0-0.619-0.666-1.226-1.995-1.817c0-0.896-0.726-4.471-2.173-10.729c-0.33-1.289-0.494-2.613-0.494-3.971v-1.086
				c0.236-0.869,1.033-1.384,2.391-1.541h0.197c1.619,0,2.607,1.133,2.964,3.397l-0.101,1.304c1.227-1.054,2.972-2.877,5.236-5.473
				c1.883-1.751,3.647-2.627,5.295-2.627H461.316z"/>
			<path fill="#FFFFFF" d="M497.544,190.947c0,0.408,0.336,0.75,1.008,1.027c0.486,0.342,0.797,2.417,0.929,6.223l-0.039,7.844
				c0,3.779,1.31,8.232,3.931,13.354c1.055,1.212,1.582,2.101,1.582,2.667l0.077,0.573c0,0.329-0.446,1.126-1.343,2.392h-1.245
				c-1.817,0-3.114-1.213-3.892-3.637c-0.355-0.947-0.963-1.883-1.817-2.806c-0.672,1.752-2.141,3.372-4.405,4.86
				c-2.646,1.344-5.656,2.016-9.027,2.016c-1.331-0.963-1.996-1.482-1.996-1.562c-0.264-1.33-0.395-2.252-0.395-2.766v-0.475
				c0-1.515,1.618-3.943,4.858-7.289c3.067-2.596,5.538-4.012,7.408-4.248c0.646-0.303,0.969-0.75,0.969-1.344
				c-0.593-6.203-0.89-10.338-0.89-12.406v-2.232l2.627-1.936c0.289-0.172,0.548-0.258,0.771-0.258h0.889V190.947z M487.785,220.66
				c2.291,0,4.168-1.824,5.631-5.474c0.264-0.54,0.396-0.954,0.396-1.245c-2.503,0.805-4.319,2.182-5.453,4.131
				c-0.843,1.396-1.265,2.231-1.265,2.508L487.785,220.66z"/>
			<path fill="#FFFFFF" d="M523.117,208.629c0.315,1.133,0.473,2.015,0.473,2.646c0,2.635-2.047,4.762-6.144,6.381v0.08
				c1.106,1.83,2.522,2.746,4.247,2.746c2.396,0,4.945-1.91,7.646-5.729c1.672-1.87,2.942-2.806,3.812-2.806h0.158l0.157,0.178
				v0.811l-0.079,0.315c0.026,0.132,0.133,0.225,0.315,0.276c0.355,0,0.586-0.283,0.691-0.85h0.158v0.079
				c0,0.896-0.777,2.37-2.331,4.425c-0.276,0.475-0.468,0.995-0.573,1.561c-0.725,0.172-1.086,0.469-1.086,0.891
				c-1.488,2.438-3.675,4.154-6.559,5.156c-0.949,0.209-1.719,0.314-2.312,0.314h-0.811c-3.885,0-7.703-2.805-11.457-8.416
				l-0.396-6.4v-0.592c0-2.621,0.85-4.254,2.549-4.899c1.83-1.027,3.438-1.541,4.82-1.541
				C519.152,203.255,521.391,205.046,523.117,208.629z M515.292,214.338c0.594,0,1.515-0.469,2.767-1.402
				c0.211-0.658,0.315-1.186,0.315-1.58c0-1.594-0.711-2.699-2.133-3.318l-0.613-0.079c-0.815,0-1.225,0.257-1.225,0.771
				c-0.29,0.526-0.436,1.291-0.436,2.291C513.968,212.586,514.41,213.693,515.292,214.338z"/>
			<path fill="#FFFFFF" d="M546.949,205.605c2.557,0,4.498,0.659,5.828,1.977c0.316,0.104,0.475,0.322,0.475,0.652
				c-0.486,0.328-0.758,0.56-0.811,0.69c0.33,6.954,0.494,12.144,0.494,15.567c0,6.61-0.553,10.793-1.659,12.545
				c-1.567,3.24-3.728,4.859-6.479,4.859c-2.582,0-4.848-1.041-6.797-3.121l-0.158-0.277v-0.334c0-0.777-0.69-2.016-2.073-3.715
				c-0.565-0.976-0.851-1.838-0.851-2.588c0-0.752,0.205-1.291,0.613-1.621h0.336c0.236,0,0.651,0.297,1.244,0.891
				c0.646,0,0.969,0.138,0.969,0.414c0.486,1.527,1.812,3.05,3.971,4.564c0.078,0,0.777,0.473,2.095,1.422
				c1.08-0.276,2.017-1.021,2.806-2.232c0.883-1.778,1.323-4.301,1.323-7.566l-0.235-9.699l0.078-1.58
				c-0.593,0.565-1.806,2.33-3.636,5.293c-1.487,1.779-2.957,2.668-4.405,2.668h-0.572c-0.922,0-1.977-0.605-3.162-1.817
				c-0.881-0.565-1.322-1.251-1.322-2.055c-0.33-0.869-0.494-1.896-0.494-3.082v-0.572c0-4.426,2.266-7.823,6.796-10.194
				c1.699-0.725,3.358-1.086,4.979-1.086h0.648V205.605z M539.501,217.775l0.158,1.659c1.437-0.776,2.68-2.153,3.734-4.129
				c1.132-2.015,2.152-3.7,3.062-5.058c-0.026-0.184-0.133-0.276-0.315-0.276c-1.213,0-2.683,0.705-4.406,2.114
				c-1.487,1.554-2.231,3.267-2.231,5.137v0.553H539.501z"/>
		</g>
	</g>
	<path fill="#D20A11" d="M6.568,246.343c-0.998,0-1.852-0.758-1.953-1.771c-0.107-1.08,0.682-2.041,1.762-2.148
		c3.858-0.382,14.805-1.182,26.395-2.029c13.769-1.006,28.006-2.047,32.517-2.537c3.878-0.42,7.71-0.221,11.415-0.027
		c2.687,0.142,5.466,0.287,8.181,0.183c3.673-0.137,51.614-1.118,56.252-0.453c1.074,0.154,1.82,1.15,1.666,2.226
		c-0.154,1.072-1.15,1.82-2.224,1.666c-4.026-0.578-50.459,0.301-55.547,0.49c-2.89,0.107-5.759-0.041-8.534-0.187
		c-3.714-0.192-7.222-0.377-10.786,0.01c-4.58,0.498-18.853,1.541-32.655,2.552c-11.563,0.844-22.486,1.643-26.294,2.02
		C6.698,246.339,6.633,246.343,6.568,246.343z"/>
	<g>
		<path fill="#FFFFFF" d="M519.604,173.878c-0.097,0-0.192-0.009-0.291-0.028c-0.813-0.158-1.343-0.947-1.183-1.761
			c1.675-8.519,8.627-37.08,27.779-47.041c0.734-0.384,1.641-0.099,2.022,0.639c0.382,0.734,0.096,1.642-0.64,2.021
			c-4.541,2.362-19.854,12.586-26.221,44.959C520.933,173.382,520.306,173.878,519.604,173.878z"/>
		<path fill="#FFFFFF" d="M518.226,176.365l-0.739-1.242c-1.952-3.28-4.438-5.836-7.071-8.539c-2.459-2.528-5.002-5.143-7.078-8.4
			c-0.444-0.697-0.239-1.626,0.459-2.07c0.699-0.445,1.627-0.238,2.072,0.459c1.908,2.998,4.234,5.39,6.697,7.92
			c2.321,2.386,4.712,4.843,6.707,7.842c1.77-1.079,3.908-2.572,6.148-4.137c4.086-2.852,8.312-5.799,11.593-7.199
			c0.762-0.323,1.643,0.029,1.968,0.793c0.325,0.762-0.029,1.643-0.792,1.968c-2.995,1.276-7.274,4.265-11.052,6.899
			c-2.854,1.99-5.547,3.871-7.645,5.016L518.226,176.365z"/>
	</g>
</g>
</svg>
