<?xml version="1.0" encoding="utf-8"?>
<!-- Generator: Adobe Illustrator 16.0.3, SVG Export Plug-In . SVG Version: 6.00 Build 0)  -->
<!DOCTYPE svg PUBLIC "-//W3C//DTD SVG 1.1//EN" "http://www.w3.org/Graphics/SVG/1.1/DTD/svg11.dtd">
<svg version="1.1" id="Layer_1" xmlns="http://www.w3.org/2000/svg" xmlns:xlink="http://www.w3.org/1999/xlink" x="0px" y="0px"
	 width="317px" height="144.066px" viewBox="0 0 317 144.066" enable-background="new 0 0 317 144.066" xml:space="preserve">
<g>
	<path fill="#3C3C3B" d="M18.273,28.348c9.267-1.733,18.412,7.594,27.438,27.982c1.438,3.785,2.479,7.402,3.126,10.857l0.109,0.582
		c1.547,8.271,1.004,15.459-1.63,21.563c-3.427,5.901-7.804,9.353-13.13,10.349l-1.569,0.295
		c-6.227,1.164-12.469-1.457-18.728-7.863C8.23,85.545,4.53,77.604,2.787,68.288l-0.416-2.226
		C0.196,54.437,0.608,44.529,3.607,36.341c1.81-2.705,3.857-4.473,6.145-5.304c3.346-1.355,5.991-2.216,7.938-2.58L18.273,28.348z
		 M13.222,43.528l-0.511,0.096c-0.63,0.269-0.932,2.491-0.906,6.664C11.377,55,11.589,59.631,12.44,64.18l0.055,0.291
		c2.579,13.79,7.728,22.004,15.445,24.637c1.725,0.334,3.157,0.393,4.301,0.179l0.583-0.109c3.745-0.7,6.334-4.092,7.764-10.175
		c0.138-2.089-0.114-4.85-0.756-8.279l-0.335-1.787c-1.624-8.684-5.184-16.94-10.676-24.773c-4.293-4.509-7.51-6.562-9.649-6.163
		l-0.474,0.089c-1.484,0.278-2.436,2.054-2.854,5.329L13.222,43.528z"/>
	<path fill="#3C3C3B" d="M56.672,54.167c10.92-2.043,19.183-1.411,24.785,1.896c2.802,2.597,4.438,5.148,4.905,7.653
		c0.756,4.038-1.195,8.884-5.852,14.537c-3.781,4.006-7.765,6.399-11.947,7.183l-0.475,0.088c3.263,17.439,5.831,28.412,7.707,32.92
		l-0.119,0.175l-2.226,0.416c-0.313,0.209-0.494,0.521-0.543,0.933c-4.379-0.264-6.693-1.064-6.944-2.4
		c-2.728-5.834-5.242-14.904-7.544-27.211l-2.354-18.439c-0.438-2.335-1.218-4.555-2.342-6.66c-0.195,0.036-0.274,0.416-0.239,1.141
		l-0.256,0.047c-0.243,0.045-0.566-0.334-0.969-1.141l-0.081-0.438c-0.178-0.949,0.153-2.068,0.995-3.358l-0.292,0.054
		c-0.365,0.068-0.546,0.381-0.543,0.935l-0.292,0.054L52.02,62.4c-0.318-1.702,0.772-3.605,3.274-5.71L56.672,54.167z
		 M66.722,77.208c2.384-0.446,4.874-1.868,7.471-4.269c2.014-2.691,2.639-6.082,1.874-10.168c-3.992-2.098-7.168-2.925-9.527-2.483
		c-1.435,0.269-2.077,0.804-1.927,1.606l2.112,14.52L66.722,77.208z"/>
	<path fill="#3C3C3B" d="M93.556,47.267c10.921-2.043,19.183-1.411,24.786,1.896c2.802,2.598,4.437,5.148,4.905,7.653
		c0.756,4.038-1.195,8.884-5.852,14.538c-3.782,4.006-7.765,6.398-11.948,7.183l-0.474,0.088c3.262,17.438,5.83,28.412,7.706,32.92
		l-0.118,0.174l-2.226,0.416c-0.313,0.209-0.495,0.521-0.543,0.933c-4.38-0.264-6.694-1.063-6.944-2.4
		c-2.728-5.834-5.242-14.904-7.545-27.211l-2.354-18.439c-0.437-2.334-1.218-4.555-2.341-6.661c-0.195,0.037-0.275,0.417-0.24,1.14
		l-0.255,0.048c-0.244,0.045-0.566-0.335-0.969-1.141l-0.082-0.438c-0.178-0.949,0.154-2.068,0.995-3.358l-0.291,0.055
		c-0.365,0.068-0.547,0.379-0.544,0.932l-0.292,0.055L88.903,55.5c-0.318-1.702,0.773-3.605,3.274-5.71L93.556,47.267z
		 M103.606,70.309c2.383-0.447,4.873-1.869,7.471-4.269c2.014-2.692,2.639-6.082,1.874-10.168c-3.993-2.098-7.169-2.926-9.527-2.484
		c-1.436,0.269-2.077,0.804-1.927,1.606l2.111,14.521L103.606,70.309z"/>
	<path fill="#3C3C3B" d="M143.267,38.684c3.551-0.665,5.685-0.157,6.401,1.521c0.962,1.507,1.49,2.516,1.586,3.026
		c-0.452,1.217-1.796,2.312-4.03,3.284c-6.824,2.41-10.161,4.016-10.012,4.818c1.364,1.507,4.25,2.465,8.656,2.874
		c7.635,0.309,13.243,0.958,16.827,1.95c3.387,1.279,5.363,3.439,5.934,6.479c0.934,4.986-2.891,9.175-11.47,12.567
		c-2.516,0.947-4.917,1.638-7.203,2.064c-9.138,1.08-13.845,0.877-14.122-0.604c-1.126-0.771-1.821-1.862-2.085-3.272l-0.137-0.729
		c-0.346-1.849,0.335-3.726,2.043-5.63c5.49,1.49,9.974,1.908,13.452,1.259c2.796-0.522,4.94-1.78,6.431-3.771l-0.027-0.146
		c-2.871-0.947-8.208-1.623-16.012-2.025c-7.77-0.762-11.957-2.761-12.562-5.996l-0.082-0.438
		c-0.933-4.985,1.437-9.406,7.109-13.262c2.87-2.022,5.568-3.27,8.099-3.743L143.267,38.684z"/>
	<path fill="#3C3C3B" d="M169.979,13.334c2.504-0.469,4.117-0.128,4.836,1.021l0.778,1.742c0.351,1.873-1.392,3.533-5.224,4.979
		l-1.059,0.198c-2.932,0.347-4.541-0.258-4.832-1.814l-0.256-0.557l-0.149-0.803c0.312-2.5,1.987-4.034,5.028-4.604L169.979,13.334z
		 M175.377,29.278c2.354,6.256,4.197,12.947,5.53,20.073l0.799,4.269l2.655,15.815c-0.701,0.685-1.803,1.33-3.299,1.938
		l-0.877,1.372l-0.146,0.026c-0.853,0.16-1.75-0.34-2.696-1.496c0.114,0.607,0.073,0.931-0.121,0.968
		c-1.754-1.031-3.035-3.712-3.846-8.041l-2.001-18.166c-0.638-2.322-1.409-5.916-2.319-10.781c-0.765-4.086,0.276-6.396,3.123-6.928
		C174.124,27.964,175.189,28.281,175.377,29.278z"/>
	<path fill="#3C3C3B" d="M208.15,0c0.142,0.754,0.879,1.271,2.216,1.549c1.018,0.464,2.307,4.188,3.864,11.171l2.637,14.498
		c1.307,6.981,5.265,14.749,11.874,23.304c2.364,1.874,3.646,3.333,3.84,4.379l0.345,1.031c0.113,0.608-0.438,2.234-1.654,4.878
		l-2.299,0.43c-3.355,0.628-6.172-1.162-8.443-5.369c-0.983-1.628-2.426-3.146-4.325-4.553c-0.636,3.467-2.788,6.966-6.456,10.497
		c-4.425,3.396-9.751,5.677-15.977,6.842c-2.789-1.316-4.197-2.047-4.226-2.193c-0.946-2.363-1.508-4.021-1.685-4.971l-0.164-0.875
		c-0.523-2.797,1.629-7.844,6.455-15.141c4.771-5.852,8.843-9.319,12.215-10.403c1.087-0.782,1.527-1.721,1.322-2.815
		c-3.236-11.251-5.213-18.786-5.928-22.604l-0.771-4.123l4.184-4.483c0.476-0.416,0.921-0.663,1.334-0.74L208.15,0z M200.395,58.242
		c4.23-0.792,7.066-4.808,8.506-12.051c0.301-1.088,0.399-1.899,0.301-2.435c-4.344,2.348-7.225,5.518-8.643,9.509
		c-1.076,2.869-1.564,4.559-1.47,5.07L200.395,58.242z"/>
	<path fill="#3C3C3B" d="M257.747,24.517c0.976,1.983,1.571,3.558,1.79,4.726c0.91,4.864-2.139,9.5-9.143,13.906l0.027,0.146
		c2.676,2.999,5.605,4.2,8.793,3.604c4.426-0.828,8.473-5.235,12.139-13.222c2.443-4.031,4.468-6.197,6.072-6.498l0.292-0.055
		l0.354,0.274l0.279,1.496l-0.037,0.611c0.095,0.234,0.32,0.368,0.681,0.401c0.655-0.123,0.983-0.725,0.981-1.808l0.293-0.055
		l0.026,0.146c0.31,1.654-0.616,4.646-2.776,8.977c-0.347,0.971-0.52,1.999-0.519,3.081c-1.278,0.566-1.845,1.239-1.699,2.017
		c-1.907,5.015-5.351,8.944-10.331,11.788c-1.678,0.717-3.063,1.178-4.158,1.382l-1.496,0.28
		c-7.176,1.342-15.197-2.519-24.067-11.583l-2.94-11.684l-0.205-1.094c-0.904-4.84,0.1-8.149,3.015-9.928
		c3.024-2.53,5.815-4.034,8.368-4.511C248.568,15.963,253.323,18.498,257.747,24.517z M245.271,37.764
		c1.096-0.205,2.636-1.387,4.623-3.546c0.162-1.289,0.174-2.298,0.037-3.028c-0.55-2.942-2.246-4.74-5.086-5.392l-1.158,0.065
		c-1.508,0.282-2.174,0.897-1.996,1.846c-0.354,1.073-0.355,2.534-0.01,4.382C242.223,34.986,243.42,36.877,245.271,37.764z"/>
	<path fill="#3C3C3B" d="M300.996,4.003c1.85,2.75,3.71,6.241,5.584,10.472c4.547,13.272,7.764,21.921,9.648,25.949
		c0.316-0.059,0.744,0.818,1.285,2.629l0.055,0.292c0.311,1.653-0.605,2.681-2.745,3.081l-0.292,0.055
		c-3.09,0.578-4.74,0.295-4.954-0.848c-2.021-2.719-3.888-6.17-5.601-10.355l-6.813-18.663l-0.146,0.027
		c-2.646,4.825-5.17,13.68-7.566,26.563c-1.189,4.276-1.887,6.47-2.092,6.584c-0.06-0.316-0.598-0.43-1.611-0.34l-2.152,0.403
		c-0.9,0.168-1.435-0.197-1.603-1.098l-2.288-2.743c0.428-5.115-0.5-13.777-2.785-25.987c1.812-1.623,2.74-2.577,2.788-2.863
		c-0.082-0.438,0.083-0.695,0.497-0.772c3.666-0.182,5.552,0.006,5.656,0.565l-0.187,1.432l0.175,0.119l0.146-0.027
		c1.601-2.212,2.928-4.94,3.981-8.183c1.873-4.252,3.879-6.579,6.021-6.979C299.279,3.506,300.945,3.735,300.996,4.003z"/>
</g>
<g>
	<path fill="#3C3C3B" d="M114.854,133.807c1.729-0.303,4.953-0.663,9.676-1.083c0.26,0.25,0.422,0.564,0.488,0.939l0.009,0.053
		c0.122,0.699-0.117,1.364-0.717,2.001l-8.478,1.062l-2.995,0.699c-0.769,0.135-1.206-0.104-1.313-0.715l-0.022-0.131
		c-0.125-0.716,0.147-1.421,0.818-2.114c0.433-0.255,1.063-0.455,1.892-0.6L114.854,133.807z"/>
	<path fill="#3C3C3B" d="M137.289,114.69c0.803-0.14,1.445,0.161,1.926,0.905c0.054,4.426,0.298,7.883,0.733,10.371l0.394,2.253
		l0.729-0.074c1.554-0.271,3.228-0.811,5.021-1.62l0.882-0.207c0.803-0.141,1.271,0.173,1.406,0.941
		c0.199,1.144-0.451,1.955-1.95,2.434c-0.649,0.301-2.373,0.81-5.172,1.523c0.012,0.07-0.108,0.128-0.361,0.172l0.931,3.398
		c0.084,0.481,0.05,0.928-0.103,1.341c0.307,0.262,0.506,0.659,0.599,1.191l0.095,0.536c0.21,1.206,0.196,1.874-0.041,2.005
		l-1.395,0.136c-0.156,0.027-0.323,0.183-0.498,0.465c-1.015-0.245-1.752-1.682-2.211-4.31c-0.415-2.374-0.748-3.54-1.002-3.495
		c-0.383-0.285-1.529-0.26-3.441,0.075c-0.855,0.149-1.543-0.204-2.061-1.059l-0.027-0.156c0.263-1.018,1.154-1.658,2.673-1.924
		c0.806-0.123,1.217-0.141,1.232-0.055c0.271-0.047,0.428-0.303,0.473-0.77l0.151-0.136l0.458-0.08l-0.188-0.695
		c-0.531-3.038-0.902-7.017-1.114-11.938c0.36-0.665,0.907-1.062,1.641-1.19L137.289,114.69z"/>
	<path fill="#3C3C3B" d="M147.623,117.298c0.898-0.157,1.475-0.028,1.727,0.387l0.272,0.628c0.117,0.671-0.514,1.258-1.893,1.76
		l-0.38,0.066c-1.051,0.112-1.625-0.111-1.723-0.67l-0.089-0.2l-0.051-0.289c0.123-0.893,0.729-1.436,1.821-1.627L147.623,117.298z
		 M149.488,123.031c0.815,2.251,1.448,4.654,1.895,7.212l0.269,1.533l0.883,5.675c-0.254,0.242-0.651,0.469-1.19,0.681l-0.319,0.486
		l-0.053,0.01c-0.305,0.053-0.625-0.129-0.959-0.547c0.038,0.219,0.021,0.333-0.047,0.346c-0.624-0.378-1.072-1.343-1.344-2.896
		l-0.639-6.515c-0.218-0.834-0.479-2.124-0.784-3.871c-0.256-1.466,0.126-2.289,1.147-2.467
		C149.046,122.556,149.426,122.673,149.488,123.031z"/>
	<path fill="#3C3C3B" d="M152.085,111.943c0.664-0.116,1.036,0.062,1.119,0.533c0.45,1.082,0.781,2.229,0.993,3.443l1.034,8.159
		l0.146,0.838c0.428,2.453,1.436,5.741,3.019,9.863l0.104,0.589c0.12,0.69-0.007,1.117-0.383,1.281
		c-0.245,0.043-0.742,0.238-1.491,0.585c-0.229-0.131-0.617-0.293-1.164-0.484c-1.839-4.915-3.033-8.943-3.582-12.086l-0.268-1.532
		c-0.391-2.235-0.564-4.539-0.521-6.914c-0.104,0.019-0.268-0.349-0.489-1.102l-0.482-0.212c0.218-0.038,0.291-0.73,0.218-2.077
		c0.545-0.481,1.058-0.765,1.538-0.849L152.085,111.943z"/>
	<path fill="#3C3C3B" d="M166.78,113.95c0.899-0.157,1.476-0.028,1.728,0.387l0.272,0.628c0.117,0.671-0.514,1.258-1.893,1.76
		l-0.38,0.066c-1.051,0.112-1.625-0.111-1.723-0.67l-0.089-0.2l-0.051-0.289c0.123-0.894,0.729-1.436,1.82-1.627L166.78,113.95z
		 M168.646,119.684c0.816,2.251,1.448,4.654,1.896,7.212l0.268,1.533l0.884,5.675c-0.255,0.242-0.651,0.469-1.189,0.681l-0.32,0.486
		l-0.053,0.01c-0.306,0.053-0.625-0.129-0.959-0.547c0.038,0.219,0.021,0.333-0.048,0.345c-0.623-0.377-1.071-1.342-1.343-2.896
		l-0.639-6.515c-0.219-0.834-0.479-2.124-0.785-3.871c-0.256-1.466,0.127-2.289,1.148-2.467
		C168.203,119.208,168.583,119.325,168.646,119.684z"/>
	<path fill="#3C3C3B" d="M180.887,116.91c0.65,0.993,1.303,2.251,1.955,3.774c1.571,4.773,2.688,7.884,3.346,9.334
		c0.113-0.02,0.263,0.296,0.448,0.947l0.019,0.104c0.104,0.594-0.229,0.958-0.997,1.092l-0.104,0.019
		c-1.109,0.193-1.699,0.085-1.771-0.325c-0.711-0.982-1.366-2.226-1.961-3.732l-2.361-6.713l-0.052,0.009
		c-0.969,1.718-1.91,4.878-2.824,9.481c-0.444,1.526-0.702,2.309-0.777,2.349c-0.02-0.113-0.211-0.156-0.575-0.129l-0.772,0.136
		c-0.323,0.057-0.513-0.077-0.569-0.4l-0.807-0.992c0.174-1.829-0.121-4.936-0.887-9.318c0.655-0.574,0.992-0.91,1.01-1.014
		c-0.027-0.157,0.033-0.248,0.183-0.273c1.313-0.051,1.987,0.024,2.022,0.226l-0.072,0.512l0.062,0.044l0.052-0.009
		c0.583-0.785,1.07-1.758,1.462-2.915c0.688-1.514,1.417-2.339,2.186-2.473C180.274,116.725,180.87,116.814,180.887,116.91z"/>
	<path fill="#3C3C3B" d="M192.515,116.728c1.275-0.223,2.037-0.033,2.286,0.571c0.338,0.544,0.523,0.907,0.556,1.091
		c-0.167,0.434-0.653,0.819-1.458,1.159c-2.454,0.833-3.655,1.394-3.604,1.683c0.481,0.545,1.51,0.9,3.086,1.065
		c2.734,0.145,4.74,0.4,6.019,0.771c1.207,0.474,1.906,1.255,2.098,2.346c0.312,1.79-1.075,3.274-4.161,4.452
		c-0.906,0.33-1.77,0.565-2.59,0.709c-3.276,0.348-4.961,0.255-5.055-0.277c-0.4-0.281-0.645-0.674-0.732-1.181l-0.046-0.261
		c-0.116-0.664,0.136-1.334,0.756-2.01c1.96,0.558,3.563,0.728,4.812,0.509c1.003-0.175,1.776-0.616,2.319-1.323l-0.009-0.052
		c-1.024-0.352-2.934-0.616-5.727-0.794c-2.779-0.306-4.271-1.04-4.473-2.201l-0.028-0.158c-0.312-1.789,0.555-3.361,2.604-4.718
		c1.036-0.711,2.008-1.146,2.916-1.306L192.515,116.728z"/>
	<path fill="#3C3C3B" d="M203.274,114.59c3.92-0.685,6.876-0.423,8.868,0.785c0.992,0.942,1.568,1.863,1.726,2.762
		c0.253,1.45-0.468,3.178-2.159,5.182c-1.371,1.418-2.808,2.258-4.31,2.521l-0.17,0.03c1.094,6.26,1.967,10.201,2.619,11.822
		l-0.043,0.062l-0.8,0.14c-0.112,0.074-0.179,0.183-0.197,0.331c-1.567-0.113-2.394-0.409-2.478-0.89
		c-0.952-2.101-1.812-5.36-2.585-9.777l-0.765-6.613c-0.146-0.838-0.416-1.638-0.81-2.396c-0.07,0.012-0.101,0.148-0.091,0.407
		l-0.092,0.016c-0.088,0.016-0.202-0.123-0.342-0.413l-0.027-0.157c-0.06-0.34,0.063-0.74,0.37-1.197l-0.104,0.019
		c-0.131,0.022-0.197,0.133-0.199,0.331l-0.104,0.018l-0.01-0.052c-0.106-0.612,0.292-1.289,1.197-2.031L203.274,114.59z
		 M206.775,122.885c0.855-0.149,1.753-0.646,2.693-1.495c0.733-0.957,0.971-2.168,0.715-3.634c-1.421-0.769-2.554-1.079-3.401-0.931
		c-0.515,0.09-0.748,0.278-0.697,0.567l0.693,5.209L206.775,122.885z"/>
	<path fill="#3C3C3B" d="M215.429,105.449c0.898-0.156,1.475-0.028,1.727,0.387l0.272,0.628c0.117,0.671-0.514,1.258-1.893,1.76
		l-0.38,0.066c-1.051,0.112-1.625-0.111-1.723-0.67l-0.089-0.2l-0.05-0.289c0.122-0.893,0.729-1.436,1.819-1.626L215.429,105.449z
		 M217.294,111.183c0.815,2.251,1.448,4.654,1.895,7.212l0.268,1.533l0.884,5.675c-0.255,0.243-0.651,0.469-1.189,0.681l-0.32,0.487
		l-0.052,0.009c-0.306,0.054-0.626-0.128-0.959-0.547c0.038,0.219,0.021,0.333-0.049,0.346c-0.623-0.378-1.07-1.343-1.342-2.896
		l-0.64-6.515c-0.218-0.834-0.479-2.124-0.784-3.871c-0.257-1.466,0.126-2.288,1.147-2.467
		C216.851,110.707,217.231,110.824,217.294,111.183z"/>
	<path fill="#3C3C3B" d="M229.949,109.16c1.092-0.191,1.681-0.037,1.768,0.46c0.214,0.503,0.47,0.858,0.767,1.067l0.019,0.105
		c-2.834,2.113-4.642,5.053-5.424,8.814c-0.335,1.993-0.4,3.574-0.196,4.743c-0.954,0.662-1.607,1.023-1.956,1.085
		c-0.072-0.41-0.583-0.734-1.533-0.974c-0.104-0.594-0.998-2.88-2.683-6.859c-0.368-0.816-0.63-1.675-0.787-2.574l-0.126-0.721
		c0.056-0.604,0.524-1.036,1.406-1.298l0.131-0.022c1.073-0.188,1.859,0.447,2.357,1.908l0.086,0.876
		c0.689-0.84,1.635-2.251,2.836-4.233c1.046-1.379,2.114-2.165,3.205-2.355L229.949,109.16z"/>
	<path fill="#3C3C3B" d="M242.611,106.556c0.682-0.119,1.24,0.377,1.677,1.488c0.105,0.603,0.813,2.493,2.126,5.675
		c0.837,1.753,1.859,3.175,3.066,4.269c0.739,0.778,1.15,1.409,1.234,1.889l0.058,0.328c0.071,0.41-0.15,0.659-0.665,0.749
		c-0.441,0.41-0.753,0.632-0.937,0.664c-1.032-0.189-2.035-0.81-3.012-1.862c-0.523-0.682-1.522-2.199-2.994-4.552l-0.398-0.348
		c-0.927,2.167-1.762,3.87-2.509,5.106c-0.935,1.397-2.144,2.224-3.627,2.483c-1.415,0.247-2.464-0.324-3.148-1.717l-0.205-0.869
		c-0.345-1.973,0.505-4.644,2.553-8.016c1.363-1.569,3.005-2.991,4.924-4.262c0.487-0.553,1.02-0.88,1.596-0.98L242.611,106.556z
		 M236.978,118.715l0.051-0.009c0.84-0.146,1.558-1.029,2.156-2.645c1.24-2.223,1.766-3.88,1.574-4.971l-0.061-0.045l-0.119,0.021
		c-0.586,0.301-1.541,1.426-2.864,3.376c-0.774,1.438-1.041,2.849-0.8,4.229L236.978,118.715z"/>
	<path fill="#3C3C3B" d="M254.677,105.865c1.274-0.223,2.037-0.033,2.286,0.572c0.338,0.543,0.522,0.906,0.555,1.09
		c-0.167,0.434-0.652,0.819-1.458,1.159c-2.453,0.833-3.655,1.394-3.604,1.683c0.481,0.545,1.511,0.901,3.087,1.065
		c2.733,0.145,4.739,0.4,6.019,0.771c1.206,0.474,1.906,1.255,2.097,2.346c0.312,1.79-1.074,3.274-4.161,4.452
		c-0.905,0.33-1.769,0.565-2.589,0.709c-3.276,0.348-4.962,0.255-5.056-0.277c-0.399-0.281-0.644-0.674-0.732-1.181l-0.046-0.261
		c-0.115-0.664,0.136-1.334,0.757-2.01c1.959,0.558,3.563,0.728,4.812,0.509c1.004-0.175,1.777-0.616,2.32-1.323l-0.01-0.052
		c-1.024-0.352-2.933-0.616-5.727-0.794c-2.779-0.306-4.27-1.04-4.473-2.201l-0.027-0.158c-0.312-1.789,0.555-3.361,2.603-4.718
		c1.036-0.711,2.009-1.146,2.916-1.306L254.677,105.865z"/>
	<path fill="#3C3C3B" d="M267.209,102.905c0.824,2.303,1.573,5.375,2.245,9.217l0.188,1.384l0.178,0.319
		c0.906,5.186,1.083,8.362,0.53,9.529c-0.616,2.6-1.928,4.075-3.936,4.426l-0.053,0.009c-1.764,0.309-3.419-0.104-4.966-1.237
		c-0.228-0.166-0.394-0.551-0.499-1.153c-1.613-1.509-2.474-2.569-2.58-3.18l-0.073-0.42c-0.06-0.34,0.03-0.68,0.268-1.018
		l0.157-0.027c0.14-0.024,0.508,0.122,1.103,0.441l0.219,0.016l0.354-0.062c0.352,0.784,1.003,1.502,1.954,2.155
		c0.692,0.409,1.755,0.903,3.188,1.479c0.82-0.458,1.376-1.162,1.669-2.113c0.335-1.371,0.313-3.145-0.065-5.317l-1.072-5.131
		l-0.373-3.443l-0.723-3.517c-0.307-1.755,0.048-2.721,1.06-2.897C266.714,102.237,267.123,102.417,267.209,102.905z
		 M265.425,97.873c0.768-0.134,1.333,0.038,1.696,0.513l0.189,0.468c0.135,0.768-0.533,1.38-2.001,1.834l-0.38,0.066
		c-1.057,0.075-1.647-0.243-1.772-0.959c-0.15-0.856,0.462-1.471,1.836-1.846L265.425,97.873z"/>
	<path fill="#3C3C3B" d="M275.694,103.825c1.791-0.313,3.221,0.562,4.292,2.623c0.303,0.55,0.516,1.174,0.638,1.872l0.084,0.485
		c0.436,2.487-0.162,4.657-1.79,6.508c-0.931,0.801-1.798,1.271-2.602,1.411l-0.183,0.032c-1.859,0.325-3.386-0.631-4.577-2.87
		c-0.282-0.58-0.479-1.199-0.594-1.854l-0.048-0.275c-0.281-1.606-0.312-3.148-0.094-4.626c0.049-0.134,0.442-0.433,1.18-0.895
		c0.163-0.198,0.413-0.647,0.75-1.345c0.514-0.459,1.478-0.812,2.892-1.059L275.694,103.825z M273.991,108.98l0.359,2.515
		c0.314,1.394,0.752,2.041,1.312,1.943c0.692-0.462,1.19-1.139,1.494-2.028c0.232-0.778,0.292-1.495,0.178-2.149l-0.034-0.197
		c-0.184-1.048-0.721-1.853-1.61-2.417c-0.576,0.101-1.04,0.56-1.393,1.377c-0.173,0.3-0.309,0.477-0.407,0.53L273.991,108.98z"/>
	<path fill="#3C3C3B" d="M290.543,97.748c0.651,0.993,1.303,2.251,1.956,3.774c1.571,4.773,2.688,7.885,3.345,9.335
		c0.113-0.021,0.264,0.296,0.449,0.946l0.019,0.104c0.104,0.594-0.229,0.958-0.998,1.092l-0.104,0.019
		c-1.109,0.194-1.698,0.086-1.771-0.324c-0.711-0.982-1.365-2.227-1.961-3.733l-2.36-6.713l-0.052,0.01
		c-0.969,1.717-1.911,4.877-2.824,9.481c-0.444,1.525-0.703,2.309-0.777,2.349c-0.021-0.113-0.212-0.156-0.576-0.129l-0.771,0.135
		c-0.324,0.057-0.514-0.076-0.57-0.399l-0.807-0.992c0.175-1.83-0.121-4.937-0.887-9.319c0.656-0.573,0.992-0.91,1.011-1.013
		c-0.028-0.157,0.033-0.248,0.182-0.274c1.313-0.051,1.988,0.025,2.023,0.227l-0.073,0.512l0.062,0.043l0.053-0.009
		c0.582-0.785,1.069-1.757,1.461-2.914c0.688-1.515,1.418-2.339,2.186-2.474C289.931,97.563,290.526,97.652,290.543,97.748z"/>
</g>
<path fill="#3C3C3B" d="M168.375,98.33c14.874-6.01,29.708-12.021,45.351-15.754c20.82-4.967,42.454-5.547,63.755-4.896
	c2.146,0.064,7.033-3.09,2.656-3.225c-22.146-0.676-44.306,0.271-65.978,5.139c-16.643,3.738-32.451,10.215-48.216,16.582
	C161.69,97.895,165.648,99.432,168.375,98.33L168.375,98.33z"/>
</svg>
